<?xml version="1.0" encoding="utf-8"?>
<!-- Generator: Adobe Illustrator 24.0.0, SVG Export Plug-In . SVG Version: 6.00 Build 0)  -->
<svg version="1.1" id="Capa_1" xmlns="http://www.w3.org/2000/svg" xmlns:xlink="http://www.w3.org/1999/xlink" x="0px" y="0px"
	 viewBox="0 0 595.3 841.9" style="enable-background:new 0 0 595.3 841.9;" xml:space="preserve">
<style type="text/css">
	.st0{fill:#EBEBEB;}
	.st1{fill:#BFBEBF;}
	.st2{fill:#A8A8A8;}
	.st3{fill:#3D3E3E;}
	.st4{fill:#BABABA;}
	.st5{fill:#E3E3E2;}
</style>
<g>
	
		<image style="overflow:visible;" width="79" height="375" xlink:href="64D043EA.png"  transform="matrix(0.24 0 0 0.24 209.52 185.52)">
	</image>
	<path class="st0" d="M265.1,500.1h-92.2c-9,0-16.4-7.3-16.4-16.4V351.2c0-9,7.3-16.4,16.4-16.4h92.2c9,0,16.4,7.3,16.4,16.4v132.6
		C281.4,492.8,274.1,500.1,265.1,500.1z"/>
	<path class="st1" d="M256.2,557h-74.4c-4.2,0-7.5-3.4-7.5-7.5v-49.3h89.5v49.3C263.7,553.6,260.3,557,256.2,557z"/>
	<path class="st2" d="M218.9,500.1v4.8h8.1v15.8h-8.1v15.8h8.1v15.8h-8.1v4.8h42.3c1.3,0,2.4-1.1,2.4-2.4v-54.4H218.9z"/>
	<rect x="187.8" y="521.5" class="st3" width="17.6" height="14"/>
	<rect x="232.5" y="521.5" class="st3" width="17.6" height="14"/>
	<path class="st4" d="M243.8,301.9H194c-7.8,0-14.2,6.3-14.2,14.2v18.8H258V316C258,308.2,251.7,301.9,243.8,301.9z"/>
	<path class="st5" d="M234.8,274.3h-31.7c-3.6,0-6.5,2.9-6.5,6.5v21h44.7v-21C241.3,277.2,238.4,274.3,234.8,274.3z"/>
</g>
</svg>
